name D:\school\WTK\thesis\model\3dpredictsim\Results\windlass\Pog_s1_tmt_bCst_d00_k2000_WL40_ig24.mot
datacolumns 128
datarows 4
range 0.00000000 0.03253661
endheader
time	pelvis_tilt	pelvis_list	pelvis_rotation	pelvis_tx	pelvis_ty	pelvis_tz	hip_flexion_l	hip_adduction_l	hip_rotation_l	hip_flexion_r	hip_adduction_r	hip_rotation_r	knee_angle_l	knee_angle_r	ankle_angle_l	ankle_angle_r	subtalar_angle_l	subtalar_angle_r	tmt_angle_l	tmt_angle_r	mtp_angle_l	mtp_angle_r	lumbar_extension	lumbar_bending	lumbar_rotation	arm_flex_l	arm_add_l	arm_rot_l	arm_flex_r	arm_add_r	arm_rot_r	elbow_flex_l	elbow_flex_r	pro_sup_l	pro_sup_r	glut_med1_l/activation	glut_med2_l/activation	glut_med3_l/activation	glut_min1_l/activation	glut_min2_l/activation	glut_min3_l/activation	semimem_l/activation	semiten_l/activation	bifemlh_l/activation	bifemsh_l/activation	sar_l/activation	add_long_l/activation	add_brev_l/activation	add_mag1_l/activation	add_mag2_l/activation	add_mag3_l/activation	tfl_l/activation	pect_l/activation	grac_l/activation	glut_max1_l/activation	glut_max2_l/activation	glut_max3_l/activation	iliacus_l/activation	psoas_l/activation	quad_fem_l/activation	gem_l/activation	peri_l/activation	rect_fem_l/activation	vas_med_l/activation	vas_int_l/activation	vas_lat_l/activation	med_gas_l/activation	lat_gas_l/activation	soleus_l/activation	tib_post_l/activation	flex_dig_l/activation	flex_hal_l/activation	tib_ant_l/activation	per_brev_l/activation	per_long_l/activation	per_tert_l/activation	ext_dig_l/activation	ext_hal_l/activation	ercspn_l/activation	intobl_l/activation	extobl_l/activation	glut_med1_r/activation	glut_med2_r/activation	glut_med3_r/activation	glut_min1_r/activation	glut_min2_r/activation	glut_min3_r/activation	semimem_r/activation	semiten_r/activation	bifemlh_r/activation	bifemsh_r/activation	sar_r/activation	add_long_r/activation	add_brev_r/activation	add_mag1_r/activation	add_mag2_r/activation	add_mag3_r/activation	tfl_r/activation	pect_r/activation	grac_r/activation	glut_max1_r/activation	glut_max2_r/activation	glut_max3_r/activation	iliacus_r/activation	psoas_r/activation	quad_fem_r/activation	gem_r/activation	peri_r/activation	rect_fem_r/activation	vas_med_r/activation	vas_int_r/activation	vas_lat_r/activation	med_gas_r/activation	lat_gas_r/activation	soleus_r/activation	tib_post_r/activation	flex_dig_r/activation	flex_hal_r/activation	tib_ant_r/activation	per_brev_r/activation	per_long_r/activation	per_tert_r/activation	ext_dig_r/activation	ext_hal_r/activation	ercspn_r/activation	intobl_r/activation	extobl_r/activation	
          0.00000000	         -2.92651171	         -1.57972559	          5.35761840	          0.00000000	          0.86182861	         -0.00169851	        -17.29748048	         -1.13385095	          6.33405724	         30.54676291	          2.58641105	         -1.68387162	         -8.70800128	        -14.40651682	          3.22160578	          7.67524601	         11.09940395	         -1.65982192	        -13.89836639	          0.07997099	         29.43043765	         -0.12373089	         -1.28623996	         -0.04138656	         -2.04054624	          6.95884833	        -13.46539043	         17.86510047	         -8.86273547	        -13.45962491	         11.17561658	         32.90328830	         13.76711381	         86.51662706	         86.51662706	          0.33037572	          0.08275540	          0.05672904	          0.27242224	          0.16793937	          0.08435064	          0.05000209	          0.05000044	          0.05000035	          0.05563620	          0.08230572	          0.11035390	          0.14189510	          0.05000445	          0.05000485	          0.05000103	          0.22859119	          0.10284086	          0.05000542	          0.05000338	          0.05000193	          0.05000151	          0.28739317	          0.49144353	          0.05000048	          0.05000107	          0.05000051	          0.19035596	          0.11544029	          0.10526178	          0.10328094	          0.24664735	          0.31224773	          0.20100978	          0.19259636	          0.13664739	          0.22715287	          0.05000004	          0.10649058	          0.15420945	          0.05000032	          0.05000007	          0.05000027	          0.05000035	          0.05000039	          0.05000080	          0.05903640	          0.05903726	          0.20035282	          0.05903802	          0.05903791	          0.05000644	          0.05903810	          0.05000847	          0.13507811	          0.05000046	          0.05000214	          0.11475861	          0.28576249	          0.16412109	          0.16174310	          0.10706953	          0.05000030	          0.08232676	          0.05019113	          0.05000184	          0.05000456	          0.14834243	          0.05903838	          0.05000162	          0.18593428	          0.23462909	          0.13373924	          0.05744165	          0.15963701	          0.15727083	          0.13704127	          0.05208678	          0.05051467	          0.05762368	          0.05000004	          0.05000071	          0.05000065	          0.60841851	          0.34505012	          0.19538037	          0.42889682	          0.57930562	          0.36155484	          0.05882387	          0.09416180	          0.10010683	
          0.01084554	         -2.91754379	         -1.61035946	          5.58364045	          0.01665415	          0.86099827	         -0.00150913	        -17.19303387	         -1.36194058	          6.10824084	         29.81052467	          2.86798835	         -1.43755445	        -10.53350412	        -14.51541938	          2.22597435	          7.07889202	         11.87476702	         -2.05978645	        -14.42457000	          0.04799439	         30.24826464	         -0.09073896	         -1.06250309	          0.15074265	         -2.10578511	          6.68324103	        -13.48217831	         17.96960871	         -9.93910462	        -13.45014323	         11.08174566	         33.96387478	         13.71692472	         86.51662706	         86.51662706	          0.27979965	          0.07008667	          0.05000406	          0.23071831	          0.14223015	          0.07143775	          0.05000707	          0.05000094	          0.05000130	          0.05000024	          0.06970625	          0.18651484	          0.25411967	          0.12956063	          0.05904053	          0.13777487	          0.19359702	          0.08709838	          0.05000226	          0.05002582	          0.05005807	          0.05903558	          0.24339710	          0.43906619	          0.05583239	          0.05903344	          0.05000104	          0.16121498	          0.14987400	          0.15999082	          0.13550010	          0.20888884	          0.26444666	          0.17023779	          0.16311248	          0.11572890	          0.19237894	          0.05596299	          0.09018841	          0.13060222	          0.05000044	          0.08967963	          0.05000349	          0.05626195	          0.06247931	          0.05903583	          0.05000005	          0.05000017	          0.16968163	          0.05000018	          0.05000019	          0.05000029	          0.05000027	          0.05000035	          0.11439947	          0.05000029	          0.05000170	          0.09719083	          0.24201632	          0.32068162	          0.22860042	          0.12221411	          0.05000236	          0.06972680	          0.09264957	          0.07045246	          0.08673519	          0.12563344	          0.05000078	          0.05903997	          0.37485137	          0.19871053	          0.11326562	          0.06970939	          0.20676396	          0.21468190	          0.18015426	          0.05000017	          0.05000035	          0.05000003	          0.06970694	          0.06971037	          0.06970889	          0.51527763	          0.38919853	          0.23127443	          0.36323875	          0.51652776	          0.30620560	          0.05000002	          0.07974687	          0.08478178	
          0.02169107	         -2.90473440	         -1.64705865	          5.78055257	          0.03348530	          0.86000621	         -0.00133740	        -17.01770349	         -1.58279455	          5.87217734	         28.91742845	          3.09079257	         -1.17353417	        -12.51347816	        -14.87426685	          1.15288538	          6.64505146	         12.57968803	         -2.47335189	        -14.65622853	          0.10158113	         30.46613483	         -0.21036306	         -0.82786843	          0.35697713	         -2.15909421	          6.33919287	        -13.50153621	         18.00256771	        -10.99816801	        -13.45128230	         11.05173375	         35.01119915	         13.66343454	         86.51662706	         86.51662706	          0.32875457	          0.05935736	          0.05000007	          0.27783081	          0.12045672	          0.06050166	          0.05000505	          0.05000049	          0.05000036	          0.05000071	          0.05903823	          0.15796289	          0.22521138	          0.10972702	          0.05000485	          0.11668400	          0.16396023	          0.07377719	          0.05000115	          0.05000168	          0.05000107	          0.05000089	          0.20613633	          0.41799059	          0.05000011	          0.05000048	          0.05000026	          0.13653509	          0.12693034	          0.13549841	          0.11475689	          0.17691066	          0.22396333	          0.14417659	          0.13814221	          0.09801265	          0.16292845	          0.09390719	          0.16577724	          0.16161983	          0.16000168	          0.16715754	          0.11474991	          0.06756007	          0.05291455	          0.05000018	          0.25852171	          0.25332237	          0.35158802	          0.33473564	          0.22115762	          0.21794360	          0.07909143	          0.06784727	          0.10852624	          0.08230542	          0.05903263	          0.08231226	          0.20496685	          0.27158962	          0.19360497	          0.10350757	          0.05000099	          0.05905489	          0.07846704	          0.16471099	          0.13173961	          0.10640096	          0.05000275	          0.05000203	          0.31746666	          0.16829090	          0.24730391	          0.05903783	          0.17511121	          0.18181704	          0.15257509	          0.05000113	          0.05000335	          0.05470028	          0.05903582	          0.05903903	          0.05903827	          0.60630284	          0.40793808	          0.20826064	          0.47610988	          0.60904263	          0.37584672	          0.05430165	          0.09640899	          0.07180280	
          0.03253661	         -2.89020395	         -1.68472469	          5.94235370	          0.05025722	          0.85888126	         -0.00114681	        -16.73602107	         -1.78991120	          5.63621769	         27.96583330	          3.30637482	         -0.90893703	        -14.70378393	        -15.19149164	          0.06920129	          6.29039721	         13.20450397	         -2.90117109	        -14.39933661	          0.09953883	         29.73889821	         -0.21641469	         -0.60628213	          0.57057544	         -2.20262160	          5.96816442	        -13.52889666	         17.99248318	        -11.98797677	        -13.45901476	         11.09046874	         36.01842013	         13.58186959	         86.51662706	         86.51662706	          0.27842669	          0.05027069	          0.05000036	          0.23529884	          0.10201653	          0.05123992	          0.05000892	          0.05000079	          0.05000107	          0.05000028	          0.05000250	          0.17070302	          0.19074706	          0.13895668	          0.06401509	          0.13549675	          0.13886045	          0.06248381	          0.05000166	          0.05000821	          0.05000749	          0.05000917	          0.17457960	          0.38364220	          0.05000065	          0.05000222	          0.05000063	          0.11563336	          0.10749905	          0.11475545	          0.09718918	          0.14982794	          0.18967747	          0.12210502	          0.11699485	          0.08300863	          0.13798663	          0.12751657	          0.14039993	          0.13687823	          0.13550809	          0.21513017	          0.09718703	          0.09736900	          0.05000005	          0.05000012	          0.36149073	          0.37958350	          0.43969946	          0.28349804	          0.20826998	          0.33517860	          0.06975605	          0.10682405	          0.09191288	          0.06970968	          0.05000072	          0.06971143	          0.17358922	          0.23001344	          0.21871785	          0.15612416	          0.05000057	          0.05002051	          0.09768453	          0.25022644	          0.18780945	          0.15678997	          0.05000021	          0.05000021	          0.26886677	          0.14252798	          0.25054730	          0.05000008	          0.18716517	          0.22758337	          0.17300963	          0.05000004	          0.05000007	          0.05000001	          0.05000001	          0.05000110	          0.05000046	          0.66391489	          0.34548895	          0.17637928	          0.69594831	          0.63253699	          0.45513693	          0.07481459	          0.08165007	          0.06081074	
